<svg width="34" height="27" viewBox="0 0 34 27" fill="none" xmlns="http://www.w3.org/2000/svg">
<path d="M0 12.4837C0 10.9626 0.587896 9.61195 1.76369 8.43176C2.93948 7.25158 4.44188 6.4779 6.23823 6.15007C6.74448 4.35357 7.88761 2.8849 9.66763 1.73094C11.4476 0.576979 13.5053 0 15.8242 0C17.147 0 18.3554 0.170471 19.4169 0.524527C19.4169 0.53764 19.4169 0.53764 19.4332 0.550753C20.805 0.970374 22.0135 1.65226 23.0423 2.58329H23.0913C24.2017 3.54055 24.9366 4.6814 25.3285 6.01894H25.8348C27.5985 6.01894 29.1335 6.39922 30.4563 7.14667V7.13356C31.3218 7.60563 32.0567 8.18261 32.6446 8.87761C33.2325 9.57261 33.6244 10.3332 33.8367 11.1593C33.902 11.4347 33.9347 11.6576 33.9673 11.8412V11.9199C33.9673 11.933 33.9673 11.9985 33.9837 12.1428C34 12.287 34 12.3919 34 12.4575V12.4968C34 13.6508 33.6571 14.7261 32.9549 15.7096C32.269 16.6931 31.3218 17.493 30.1134 18.083C28.9212 18.6731 27.5985 18.9879 26.1614 19.0272C25.9491 19.0272 25.8348 18.9485 25.8348 18.8043V17.0471C25.8348 16.8766 25.9491 16.798 26.1614 16.798C27.5658 16.7455 28.7416 16.2997 29.7214 15.4604C30.7013 14.6212 31.1912 13.6377 31.1912 12.4968C31.1912 11.3298 30.6686 10.3332 29.6071 9.49393C28.562 8.65469 27.3045 8.23507 25.8348 8.23507H23.2056C23.0096 8.23507 22.9116 8.15639 22.9116 8.01214L22.781 7.23846C22.6177 5.92715 21.9318 4.79942 20.707 3.84216C20.6907 3.82904 20.6907 3.81593 20.6744 3.80282C20.658 3.7897 20.6417 3.77659 20.6417 3.76348C20.6254 3.75036 20.609 3.73725 20.5764 3.73725C20.5764 3.71102 20.56 3.69791 20.5437 3.69791C19.3516 2.83244 17.9635 2.33414 16.3631 2.22924C16.2488 2.21612 16.0692 2.21612 15.8079 2.21612C14.0115 2.21612 12.4601 2.70131 11.1374 3.65857C9.8146 4.61583 9.0634 5.80913 8.9001 7.22535L8.76945 7.99903C8.72046 8.11705 8.58982 8.18261 8.41018 8.18261L7.60999 8.22195C6.23823 8.35308 5.07877 8.82516 4.16426 9.62506C3.24976 10.425 2.79251 11.3822 2.79251 12.4837V12.5362H2.8415C2.85783 13.1656 3.02113 13.7557 3.33141 14.3065C3.65802 14.8703 4.08261 15.3424 4.63785 15.7358C4.98079 15.9718 5.37272 16.1816 5.8463 16.3652V16.3783C6.49952 16.6275 7.15274 16.7717 7.82229 16.798C8.00192 16.798 8.0999 16.8766 8.0999 17.034V18.7912C8.0999 18.9354 8.00192 19.0141 7.82229 19.0141C6.9731 18.9747 6.17291 18.8436 5.40538 18.6207V18.6338C4.04995 18.2535 2.89049 17.6241 1.95965 16.7586C1.02882 15.8932 0.408261 14.8703 0.146974 13.7295V13.6901C0.130643 13.677 0.130643 13.6639 0.130643 13.6377C0.0326608 13.2967 0 12.9034 0 12.4837ZM8.98175 21.8859C8.98175 21.8465 8.99808 21.7941 9.01441 21.7154C9.03074 21.6498 9.04707 21.5974 9.04707 21.558L9.19405 20.7844C9.30836 20.4696 9.52065 20.2467 9.86359 20.0894C10.2065 19.932 10.5658 19.9058 10.9741 19.9845C11.3497 20.0763 11.611 20.2598 11.8069 20.5221C11.9866 20.7975 12.0192 21.0728 11.9212 21.3482L11.6926 22.135C11.5293 22.712 11.121 23.0005 10.4515 23.0005C10.4025 23.0005 10.3208 22.9874 10.2229 22.9743C10.1249 22.9611 10.0596 22.948 9.99424 22.948C9.6513 22.8694 9.40634 22.7251 9.24304 22.5153C9.0634 22.3186 8.98175 22.1088 8.98175 21.8859ZM10.1902 18.0306C10.1902 17.7159 10.3208 17.4667 10.5658 17.2569C10.8108 17.0471 11.1374 16.9553 11.5293 16.9553C11.9212 16.9553 12.2315 17.0602 12.4928 17.2569C12.7541 17.4536 12.8684 17.7159 12.8684 18.0306C12.8684 18.3322 12.7378 18.5814 12.4928 18.7912C12.2478 19.001 11.9212 19.0928 11.5293 19.0928C11.1537 19.0928 10.8434 18.9879 10.5985 18.778C10.3372 18.5682 10.1902 18.3191 10.1902 18.0306ZM12.8684 25.8854C12.8684 25.8329 12.8847 25.7411 12.9337 25.5838L13.146 24.8101C13.2603 24.5085 13.489 24.2856 13.8156 24.1413C14.1585 23.984 14.5014 23.9577 14.8444 24.0495C15.22 24.102 15.5139 24.2725 15.7099 24.5347C15.9059 24.797 15.9549 25.0986 15.8405 25.4264L15.6282 26.2001C15.4649 26.7377 15.024 27 14.3218 27C14.2075 27 14.0605 26.9869 13.9299 26.9607C13.5706 26.882 13.3093 26.7377 13.1297 26.5279C12.9664 26.3181 12.8684 26.1083 12.8684 25.8854ZM14.1585 22.0695C14.1585 21.7678 14.2891 21.5056 14.5341 21.3089C14.7954 21.0991 15.1057 21.0073 15.4976 21.0073C15.8895 21.0073 16.1998 21.1122 16.4611 21.3089C16.7224 21.5187 16.8367 21.7678 16.8367 22.0695C16.8367 22.3842 16.7061 22.6333 16.4611 22.8431C16.1998 23.0529 15.8895 23.1447 15.4976 23.1447C15.122 23.1447 14.8117 23.0398 14.5504 22.83C14.2891 22.6202 14.1585 22.3711 14.1585 22.0695ZM15.171 19.0928C15.171 18.9616 15.1873 18.8436 15.22 18.7387L15.5956 17.5585C15.7099 17.2569 15.9385 17.0209 16.2651 16.8635C16.6081 16.7062 16.951 16.6668 17.3103 16.7586C17.7022 16.8504 17.9798 17.0209 18.1758 17.2831C18.3718 17.5454 18.4044 17.8208 18.2901 18.1093L17.8655 19.2895C17.7349 19.6566 17.5062 19.8927 17.196 20.0238C16.8857 20.1549 16.5264 20.1812 16.1508 20.1025C15.8242 20.05 15.5793 19.9189 15.4159 19.7091C15.22 19.4993 15.1547 19.2895 15.171 19.0928ZM19.6782 21.899C19.6782 21.8596 19.6782 21.7941 19.6945 21.7285C19.7109 21.6629 19.7109 21.6105 19.7109 21.5843L19.8578 20.8106C19.9721 20.4959 20.1844 20.2729 20.5274 20.1156C20.8703 19.9582 21.2296 19.932 21.6378 20.0107C22.0134 20.1025 22.2911 20.2861 22.4707 20.5483C22.6667 20.8237 22.6993 21.0991 22.585 21.3745L22.3564 22.1612C22.1931 22.7382 21.7848 23.0267 21.1153 23.0267C21.0663 23.0267 20.9846 23.0136 20.8866 23.0005C20.7887 22.9874 20.707 22.9743 20.658 22.9743C20.3314 22.8956 20.0865 22.7513 19.9232 22.5415C19.7762 22.3317 19.6782 22.1219 19.6782 21.899ZM20.8866 18.0437C20.8866 17.729 21.0173 17.4798 21.2622 17.27C21.5235 17.0602 21.8338 16.9684 22.2257 16.9684C22.6177 16.9684 22.928 17.0733 23.1892 17.27C23.4505 17.4798 23.5648 17.729 23.5648 18.0437C23.5648 18.3453 23.4342 18.6076 23.1892 18.8043C22.9443 19.001 22.634 19.1059 22.2421 19.1059C21.8501 19.1059 21.5399 19.001 21.2949 18.7912C21.0336 18.5945 20.8866 18.3453 20.8866 18.0437Z" fill="white"/>
</svg>
