<svg width="139" height="140" viewBox="0 0 139 140" fill="none" xmlns="http://www.w3.org/2000/svg">
<rect x="99.78" y="122.335" width="1.15353" height="8.65145" transform="rotate(-33.5514 99.78 122.335)" fill="#8E9BAB"/>
<rect x="122.274" y="100.201" width="1.15353" height="8.65145" transform="rotate(-59.8704 122.274 100.201)" fill="#8E9BAB"/>
<rect x="122.921" y="39.8347" width="1.15353" height="8.65145" transform="rotate(-124.101 122.921 39.8347)" fill="#8E9BAB"/>
<rect x="100.155" y="16.4398" width="1.15353" height="8.65145" transform="rotate(-145.574 100.155 16.4398)" fill="#8E9BAB"/>
<rect width="1.09519" height="8.46183" transform="matrix(-0.813101 -0.582122 -0.523433 0.852067 39.2625 122.911)" fill="#8E9BAB"/>
<rect width="1.13271" height="8.17928" transform="matrix(-0.473515 -0.880786 -0.847413 0.530934 18.426 100.778)" fill="#8E9BAB"/>
<rect width="1.1275" height="8.21969" transform="matrix(0.531336 -0.847161 -0.807324 -0.590109 17.8269 40.4114)" fill="#8E9BAB"/>
<rect width="1.09641" height="8.45294" transform="matrix(0.803884 -0.594786 -0.535978 -0.844232 38.9153 17.0167)" fill="#8E9BAB"/>
<circle cx="70.0767" cy="68.9232" r="33.1639" fill="#8E9BAB"/>
<rect x="68.6349" width="1.15353" height="8.65145" fill="#8E9BAB"/>
<rect x="68.6349" y="130.925" width="1.15353" height="8.65145" fill="#8E9BAB"/>
<path d="M75.1287 15.9412H73.0037C72.9431 15.5927 72.8314 15.284 72.6685 15.0151C72.5056 14.7423 72.3029 14.5113 72.0605 14.3219C71.8181 14.1325 71.5416 13.9904 71.231 13.8957C70.9242 13.7973 70.5927 13.748 70.2367 13.748C69.6041 13.748 69.0435 13.9071 68.5548 14.2253C68.0662 14.5397 67.6836 15.0018 67.4071 15.6117C67.1306 16.2177 66.9923 16.9582 66.9923 17.8332C66.9923 18.7234 67.1306 19.4734 67.4071 20.0832C67.6874 20.6893 68.07 21.1476 68.5548 21.4582C69.0435 21.7651 69.6022 21.9185 70.231 21.9185C70.5795 21.9185 70.9052 21.873 71.2083 21.7821C71.5151 21.6874 71.7897 21.5492 72.0321 21.3673C72.2783 21.1855 72.4848 20.962 72.6514 20.6969C72.8219 20.4317 72.9393 20.1287 73.0037 19.7878L75.1287 19.7992C75.0492 20.3522 74.8768 20.8711 74.6117 21.356C74.3503 21.8408 74.0075 22.2689 73.5833 22.6401C73.159 23.0075 72.6628 23.2954 72.0946 23.5037C71.5264 23.7082 70.8958 23.8105 70.2026 23.8105C69.1798 23.8105 68.267 23.5738 67.4639 23.1003C66.6609 22.6268 66.0283 21.9431 65.5662 21.0492C65.1041 20.1552 64.873 19.0832 64.873 17.8332C64.873 16.5795 65.106 15.5075 65.5719 14.6173C66.0378 13.7234 66.6723 13.0397 67.4753 12.5662C68.2783 12.0927 69.1874 11.856 70.2026 11.856C70.8503 11.856 71.4526 11.9469 72.0094 12.1287C72.5662 12.3105 73.0624 12.5776 73.498 12.9298C73.9336 13.2783 74.2916 13.7064 74.5719 14.2139C74.856 14.7177 75.0416 15.2935 75.1287 15.9412Z" fill="#8E9BAB"/>
<path d="M119.384 74.9834V63.347H123.839C124.68 63.347 125.379 63.4796 125.935 63.7448C126.496 64.0061 126.915 64.3641 127.191 64.8186C127.471 65.2732 127.612 65.7883 127.612 66.3641C127.612 66.8376 127.521 67.2429 127.339 67.58C127.157 67.9133 126.913 68.1842 126.606 68.3925C126.299 68.6008 125.956 68.7504 125.577 68.8414V68.955C125.99 68.9777 126.386 69.1046 126.765 69.3357C127.148 69.5629 127.46 69.8849 127.702 70.3016C127.945 70.7182 128.066 71.222 128.066 71.8129C128.066 72.4152 127.92 72.9569 127.629 73.4379C127.337 73.9152 126.898 74.2921 126.31 74.5686C125.723 74.8451 124.985 74.9834 124.095 74.9834H119.384ZM121.492 73.222H123.759C124.524 73.222 125.076 73.0762 125.413 72.7845C125.754 72.4891 125.924 72.1103 125.924 71.6482C125.924 71.3035 125.839 70.9929 125.668 70.7164C125.498 70.436 125.256 70.2164 124.941 70.0573C124.627 69.8944 124.252 69.8129 123.816 69.8129H121.492V73.222ZM121.492 68.2959H123.577C123.941 68.2959 124.269 68.2296 124.56 68.097C124.852 67.9607 125.081 67.7694 125.248 67.5232C125.418 67.2732 125.504 66.9777 125.504 66.6368C125.504 66.186 125.345 65.8148 125.026 65.5232C124.712 65.2315 124.244 65.0857 123.623 65.0857H121.492V68.2959Z" fill="#8E9BAB"/>
<path d="M64.9694 115.256V126.892H62.8615V115.256H64.9694ZM67.4865 120.398V122.091H63.8217V120.398H67.4865ZM77.5206 121.074C77.5206 122.328 77.2857 123.402 76.816 124.295C76.3501 125.186 75.7137 125.867 74.9069 126.341C74.1039 126.814 73.1929 127.051 72.174 127.051C71.155 127.051 70.2422 126.814 69.4353 126.341C68.6323 125.864 67.9959 125.18 67.5262 124.29C67.0603 123.396 66.8274 122.324 66.8274 121.074C66.8274 119.82 67.0603 118.748 67.5262 117.858C67.9959 116.964 68.6323 116.28 69.4353 115.807C70.2422 115.333 71.155 115.097 72.174 115.097C73.1929 115.097 74.1039 115.333 74.9069 115.807C75.7137 116.28 76.3501 116.964 76.816 117.858C77.2857 118.748 77.5206 119.82 77.5206 121.074ZM75.4012 121.074C75.4012 120.191 75.263 119.447 74.9865 118.841C74.7137 118.231 74.335 117.771 73.8501 117.46C73.3653 117.146 72.8065 116.989 72.174 116.989C71.5414 116.989 70.9827 117.146 70.4978 117.46C70.013 117.771 69.6323 118.231 69.3558 118.841C69.0831 119.447 68.9467 120.191 68.9467 121.074C68.9467 121.956 69.0831 122.703 69.3558 123.313C69.6323 123.919 70.013 124.379 70.4978 124.693C70.9827 125.004 71.5414 125.159 72.174 125.159C72.8065 125.159 73.3653 125.004 73.8501 124.693C74.335 124.379 74.7137 123.919 74.9865 123.313C75.263 122.703 75.4012 121.956 75.4012 121.074Z" fill="#8E9BAB"/>
<path d="M16.7455 75.1425C15.9273 75.1425 15.2001 75.0023 14.5637 74.722C13.9311 74.4417 13.4311 74.0516 13.0637 73.5516C12.6963 73.0516 12.5012 72.4739 12.4785 71.8186H14.6148C14.6338 72.133 14.7379 72.4076 14.9273 72.6425C15.1167 72.8735 15.3686 73.0535 15.683 73.1823C15.9974 73.311 16.3497 73.3754 16.7398 73.3754C17.1565 73.3754 17.5258 73.3035 17.8478 73.1595C18.1697 73.0118 18.4216 72.8073 18.6035 72.5459C18.7853 72.2845 18.8743 71.9834 18.8705 71.6425C18.8743 71.2902 18.7834 70.9796 18.5978 70.7107C18.4122 70.4417 18.1432 70.2315 17.791 70.08C17.4425 69.9285 17.022 69.8527 16.5296 69.8527H15.5012V68.2277H16.5296C16.9349 68.2277 17.2891 68.1576 17.5921 68.0175C17.8989 67.8773 18.1394 67.6804 18.3137 67.4266C18.4879 67.169 18.5732 66.8717 18.5694 66.5345C18.5732 66.205 18.4993 65.919 18.3478 65.6766C18.2001 65.4304 17.9898 65.2391 17.7171 65.1027C17.4482 64.9664 17.1319 64.8982 16.7682 64.8982C16.4122 64.8982 16.0826 64.9626 15.7796 65.0914C15.4766 65.2201 15.2322 65.4039 15.0466 65.6425C14.861 65.8773 14.7626 66.1576 14.7512 66.4834H12.7228C12.7379 65.8319 12.9254 65.2599 13.2853 64.7675C13.6489 64.2713 14.1338 63.8849 14.7398 63.6084C15.3459 63.3281 16.0258 63.1879 16.7796 63.1879C17.5561 63.1879 18.2304 63.3338 18.8023 63.6254C19.3781 63.9133 19.8232 64.3016 20.1376 64.7902C20.4519 65.2789 20.6091 65.8186 20.6091 66.4095C20.6129 67.0648 20.4197 67.6141 20.0296 68.0573C19.6432 68.5004 19.1357 68.7902 18.5069 68.9266V69.0175C19.3251 69.1311 19.9519 69.4342 20.3876 69.9266C20.8269 70.4152 21.0447 71.0232 21.041 71.7504C21.041 72.402 20.8554 72.9853 20.4841 73.5004C20.1167 74.0118 19.6091 74.4133 18.9614 74.705C18.3175 74.9967 17.5788 75.1425 16.7455 75.1425Z" fill="#8E9BAB"/>
<rect y="69.7884" width="1.15353" height="8.65145" transform="rotate(-90 0 69.7884)" fill="#8E9BAB"/>
<rect x="130.349" y="69.2116" width="1.15353" height="8.65145" transform="rotate(-90 130.349 69.2116)" fill="#8E9BAB"/>
</svg>
