<svg width="12" height="22" viewBox="0 0 12 22" fill="none" xmlns="http://www.w3.org/2000/svg">
<path d="M0 16.9407C0 16.0942 0.235757 15.3074 0.695481 14.5704C1.15521 13.8334 1.80354 13.2259 2.64047 12.7379V2.85831C2.64047 2.06157 2.95874 1.38434 3.60707 0.836578C4.2554 0.288819 5.05697 0 6 0C6.95481 0 7.75639 0.278859 8.40472 0.826618C9.05305 1.38434 9.38311 2.05161 9.38311 2.84835V12.7279C10.22 13.2159 10.8566 13.8334 11.3163 14.5604C11.776 15.2875 12 16.0842 12 16.9307C12 17.847 11.7289 18.7035 11.1984 19.4803C10.668 20.2571 9.93713 20.8746 9.01768 21.3228C8.09823 21.7709 7.09627 22 6 22C4.91552 22 3.91356 21.7709 2.99411 21.3228C2.07466 20.8746 1.34381 20.2571 0.801572 19.4803C0.259332 18.7035 0 17.8569 0 16.9407ZM2.07466 16.9407C2.07466 17.8669 2.46365 18.6637 3.22986 19.321C3.99607 19.9783 4.92731 20.3069 6.01179 20.3069C7.10806 20.3069 8.05108 19.9783 8.84086 19.311C9.63065 18.6437 10.0314 17.8569 10.0314 16.9507C10.0314 16.3332 9.84283 15.7555 9.46562 15.2277C9.08841 14.6999 8.56975 14.2915 7.90963 14.0027L7.57957 13.8633C7.46169 13.8234 7.40275 13.7239 7.40275 13.5745V2.85831C7.40275 2.53961 7.27308 2.27071 7.00197 2.05161C6.73084 1.84246 6.40079 1.73291 6 1.73291C5.62279 1.73291 5.29273 1.84246 5.02161 2.05161C4.75049 2.26075 4.62082 2.52965 4.62082 2.85831V13.5545C4.62082 13.7039 4.56189 13.8035 4.4558 13.8434L4.13752 13.9828C3.48919 14.2716 2.98232 14.6799 2.6169 15.2078C2.25147 15.7356 2.07466 16.3033 2.07466 16.9407Z" fill="white"/>
</svg>
