<svg width="32" height="32" viewBox="0 0 32 32" fill="none" xmlns="http://www.w3.org/2000/svg">
<rect width="32" height="32" rx="10" fill="#519EE4"/>
<path opacity="0.5" d="M12.25 6.8938H11.0417C8.1936 6.8938 6.76957 6.8938 5.88478 7.74135C5 8.58892 5 9.95304 5 12.6813V18.4688C5 21.197 5 22.5611 5.88478 23.4087C6.76957 24.2563 8.1936 24.2563 11.0417 24.2563H12.25" stroke="white" stroke-width="2" stroke-linecap="round" stroke-linejoin="round"/>
<path opacity="0.5" d="M15.875 14.4175V16.7325" stroke="white" stroke-width="2" stroke-linecap="round" stroke-linejoin="round"/>
<path d="M12.25 9.18142C12.25 6.52634 12.25 5.1988 13.1046 4.47306C13.9592 3.74732 15.2654 3.96557 17.8779 4.40206L20.6919 4.87222C23.5853 5.35563 25.0319 5.59733 25.891 6.61392C26.75 7.63051 26.75 9.10076 26.75 12.0413V19.1087C26.75 22.0492 26.75 23.5195 25.891 24.536C25.0319 25.5526 23.5853 25.7943 20.6919 26.2778L17.8779 26.7478C15.2654 27.1843 13.9592 27.4026 13.1046 26.6769C12.25 25.9511 12.25 24.6236 12.25 21.9685V9.18142Z" stroke="white" stroke-width="2"/>
</svg>
