<svg width="26" height="26" viewBox="0 0 26 26" fill="none" xmlns="http://www.w3.org/2000/svg">
<path d="M16.1366 0.150246C16.0386 0.00938907 15.8533 -0.0396225 15.6984 0.0341008C13.7412 0.967379 10.8759 2.88748 8.7157 6.65066C9.96776 8.55181 11.053 10.9995 11.6222 14.1157C11.6968 11.0016 12.3145 4.28904 16.0934 0.601646C16.2165 0.482206 16.2342 0.291102 16.1366 0.150246Z" fill="#48AA13"/>
<path d="M3.22684 2.84387C3.16836 2.80516 3.10164 2.78662 3.03492 2.78662C2.93978 2.78662 2.84505 2.82534 2.77627 2.89988C2.66012 3.02632 2.65271 3.21825 2.75815 3.35334C6.56828 8.23308 5.51268 16.6552 5.20707 18.5939C5.19101 18.6956 5.21984 18.799 5.28656 18.8772C5.35329 18.9547 5.4509 19.0004 5.55345 19.0004H10.4579C10.5522 19.0004 10.6416 18.9629 10.7075 18.8962C10.7734 18.8295 10.81 18.7393 10.8088 18.6454C10.6951 9.16059 6.0378 4.6853 3.22684 2.84387Z" fill="#48AA13"/>
<path d="M0.257755 11.3483C0.189798 11.3038 0.0991884 11.315 0.0439989 11.3747C-0.0111905 11.4348 -0.0148973 11.5254 0.0353498 11.5897C1.84219 13.9031 1.34177 17.8961 1.19639 18.815C1.18856 18.8636 1.20298 18.908 1.23387 18.9455C1.26558 18.9826 1.31212 18.9999 1.36072 18.9999H3.68568C3.72975 18.9999 3.77258 18.9859 3.80388 18.9546C3.83518 18.9233 3.85248 18.8821 3.85207 18.8376C3.79853 14.3409 1.59095 12.2215 0.257755 11.3483Z" fill="#48AA13"/>
<path d="M17.425 8.48019C17.3483 8.39741 17.2248 8.38175 17.1301 8.44353C15.2919 9.64741 12.2479 12.5737 12.1729 18.7759C12.1717 18.8365 12.1972 18.8916 12.2392 18.9357C12.2825 18.9794 12.3405 19 12.4027 19H15.6091C15.6766 19 15.7396 18.9744 15.7837 18.9229C15.8265 18.8719 15.8455 18.8068 15.8356 18.7405C15.6358 17.4728 14.9455 11.9666 17.4373 8.77549C17.5065 8.68736 17.5011 8.56297 17.425 8.48019Z" fill="#48AA13"/>
<path d="M24.1366 0.150246C24.0386 0.00938907 23.8533 -0.0396225 23.6984 0.0341008C21.7412 0.967379 18.8759 2.88748 16.7157 6.65066C17.9678 8.55181 19.053 10.9995 19.6222 14.1157C19.6968 11.0016 20.3145 4.28904 24.0934 0.601646C24.2165 0.482206 24.2342 0.291102 24.1366 0.150246Z" fill="#A7E228"/>
<path d="M11.2268 2.84387C11.1684 2.80516 11.1016 2.78662 11.0349 2.78662C10.9398 2.78662 10.845 2.82534 10.7763 2.89988C10.6601 3.02632 10.6527 3.21825 10.7581 3.35334C14.5683 8.23308 13.5127 16.6552 13.2071 18.5939C13.191 18.6956 13.2198 18.799 13.2866 18.8772C13.3533 18.9547 13.4509 19.0004 13.5535 19.0004H18.4579C18.5522 19.0004 18.6416 18.9629 18.7075 18.8962C18.7734 18.8295 18.81 18.7393 18.8088 18.6454C18.6951 9.16059 14.0378 4.6853 11.2268 2.84387Z" fill="#A7E228"/>
<path d="M8.25776 11.3483C8.1898 11.3038 8.09919 11.315 8.044 11.3747C7.98881 11.4348 7.9851 11.5254 8.03535 11.5897C9.84219 13.9031 9.34177 17.8961 9.19639 18.815C9.18856 18.8636 9.20298 18.908 9.23387 18.9455C9.26558 18.9826 9.31212 18.9999 9.36072 18.9999H11.6857C11.7297 18.9999 11.7726 18.9859 11.8039 18.9546C11.8352 18.9233 11.8525 18.8821 11.8521 18.8376C11.7985 14.3409 9.59095 12.2215 8.25776 11.3483Z" fill="#A7E228"/>
<path d="M25.425 8.48019C25.3483 8.39741 25.2248 8.38175 25.1301 8.44353C23.2919 9.64741 20.2479 12.5737 20.1729 18.7759C20.1717 18.8365 20.1972 18.8916 20.2392 18.9357C20.2825 18.9794 20.3405 19 20.4027 19H23.6091C23.6766 19 23.7396 18.9744 23.7837 18.9229C23.8265 18.8719 23.8455 18.8068 23.8356 18.7405C23.6358 17.4728 22.9455 11.9666 25.4373 8.77549C25.5065 8.68736 25.5011 8.56297 25.425 8.48019Z" fill="#A7E228"/>
</svg>
