<svg width="29" height="29" viewBox="0 0 29 29" fill="none" xmlns="http://www.w3.org/2000/svg">
<path fill-rule="evenodd" clip-rule="evenodd" d="M11.61 1.13721C13.2582 -0.37907 15.7418 -0.37907 17.39 1.13721L28.5133 11.3705C29.1118 11.9211 29.1658 12.8697 28.6337 13.4892C28.1017 14.1085 27.1852 14.1644 26.5867 13.6138L26.1 13.1661L26.1 21.5952C26.1001 22.9255 26.1001 24.0718 25.9809 24.9898C25.8531 25.9735 25.5649 26.9166 24.8259 27.6813C24.0869 28.4462 23.1758 28.7444 22.2253 28.8768C21.3384 29.0001 20.2309 29 18.9454 29H10.0546C8.76918 29 7.66167 29.0001 6.77471 28.8768C5.82424 28.7444 4.91306 28.4462 4.17414 27.6813C3.43508 26.9166 3.14696 25.9735 3.01907 24.9898C2.89988 24.0718 2.89988 22.9255 2.90003 21.5953L2.90003 13.1661L2.41341 13.6138C1.81485 14.1644 0.898303 14.1085 0.366299 13.4892C-0.165706 12.8697 -0.11191 11.9211 0.486649 11.3705L11.61 1.13721ZM14.5 19.9957C15.3008 19.9957 15.95 20.6676 15.95 21.4964V24.4978C15.95 25.3267 16.5992 25.9986 17.4 25.9986C18.2008 25.9986 18.85 25.3267 18.85 24.4978V21.4964C18.85 19.0099 16.9025 16.9943 14.5 16.9943C12.0975 16.9943 10.15 19.0099 10.15 21.4964V24.4978C10.15 25.3267 10.7992 25.9986 11.6 25.9986C12.4008 25.9986 13.05 25.3267 13.05 24.4978V21.4964C13.05 20.6676 13.6992 19.9957 14.5 19.9957Z" fill="white"/>
</svg>
