<svg width="26" height="26" viewBox="0 0 26 26" fill="none" xmlns="http://www.w3.org/2000/svg">
<g clip-path="url(#clip0_217_15)">
<path d="M13.1845 19.6766C13.1845 21.777 11.4789 23.5812 9.26996 23.5812C6.75684 23.5812 4.89474 21.2451 5.45532 18.7952C5.65169 17.9364 5.80017 17.0683 5.89935 16.1936C5.99721 15.3201 6.04712 14.44 6.04712 13.5586V11.7312L8.7726 9.48962L11.066 11.7312C10.9609 11.9549 12.5419 15.0665 12.5419 15.0665C12.6218 16.3214 12.8036 17.5683 13.0845 18.7952C13.1525 19.0922 13.1845 19.387 13.1845 19.6766Z" fill="#F7B239"/>
<path d="M7.59702 16.1936C7.69488 15.3202 7.7448 14.4401 7.7448 13.5586V12.4189H11.7352C11.8191 12.1845 11.8297 11.9548 11.9349 11.7312L8.70614 10.688L6.04723 11.7312V11.7764V12.4189V13.5586C6.04723 14.44 5.99731 15.3201 5.89946 16.1936C5.80028 17.0683 5.6518 17.9365 5.45543 18.7953C4.8949 21.2452 6.75695 23.5812 9.27006 23.5812C9.56327 23.5812 9.84719 23.5486 10.1198 23.4885C8.05436 23.0345 6.65772 20.9599 7.15304 18.7953C7.34936 17.9365 7.49785 17.0683 7.59702 16.1936Z" fill="#E09B2D"/>
<path d="M9.27 2.41882C12.7871 2.41882 15.8481 4.36877 17.4325 7.24604C17.9598 8.32453 18.6921 11.9861 11.0661 11.7311H6.04717H0.858493C0.353219 11.7311 4.44345 2.41882 9.27 2.41882Z" fill="#F95428"/>
<path d="M3.64367 10.7937C4.05296 6.69846 7.11593 3.38519 11.0877 2.59742C10.4997 2.48103 9.89215 2.41882 9.26997 2.41882C4.44342 2.41882 0.474358 6.09102 0.00432649 10.7937C-0.0462516 11.2964 0.353194 11.7311 0.858467 11.7311H4.49781C3.99248 11.7311 3.59304 11.2964 3.64367 10.7937Z" fill="#E54728"/>
<path d="M20.9928 20.7758C20.9928 22.285 19.7672 23.5812 18.1801 23.5812C16.374 23.5812 15.0358 21.9029 15.4393 20.142C15.5804 19.5249 15.6869 18.9011 15.7582 18.2727C15.8288 17.6449 15.864 17.0131 15.864 16.3793V15.0665L17.7933 12.3523L20.4962 15.0665V16.3793C20.4962 17.6462 20.6387 18.9078 20.9209 20.142C20.9696 20.3557 20.9928 20.5674 20.9928 20.7758Z" fill="#F7B239"/>
<path d="M17.1895 18.2727C17.26 17.6448 17.2953 17.0131 17.2953 16.3793V15.9473H20.4961V15.0665L17.76 13.8502L15.864 15.0665V15.0991V15.9472V16.3793C15.864 17.0131 15.8287 17.6448 15.7582 18.2726C15.6869 18.9011 15.5805 19.5249 15.4393 20.142C15.0358 21.9028 16.374 23.5811 18.1801 23.5811C18.4293 23.5811 18.6697 23.5491 18.8977 23.4893C17.4711 23.1177 16.5225 21.661 16.8706 20.142C17.0117 19.5249 17.1182 18.9011 17.1895 18.2727Z" fill="#E09B2D"/>
<path d="M25.9965 14.2756C26.0384 14.6996 25.7015 15.0664 25.2761 15.0664H20.4962H15.864H12.542H11.0841C13.1665 9.55615 17.9278 7.21082 18.1801 7.21082C22.2517 7.21082 25.5997 10.3085 25.9965 14.2756Z" fill="#F95428"/>
<path d="M13.3374 14.2756C13.4273 13.3741 13.6702 12.5167 14.0397 11.7311C15.0916 9.4915 17.1701 7.82964 19.6689 7.35168C19.1868 7.25921 18.6891 7.21082 18.1801 7.21082C17.9278 7.21082 17.6788 7.2228 17.4325 7.24611C14.6085 7.51241 12.2198 9.27462 11.0661 11.7312C10.6966 12.5167 10.4537 13.3742 10.3638 14.2756C10.3218 14.6997 10.658 15.0665 11.0841 15.0665H12.542H14.0577C13.6316 15.0665 13.2954 14.6996 13.3374 14.2756Z" fill="#E54728"/>
</g>
<defs>
<clipPath id="clip0_217_15">
<rect width="26" height="26" fill="white"/>
</clipPath>
</defs>
</svg>
