<svg width="29" height="29" viewBox="0 0 29 29" fill="none" xmlns="http://www.w3.org/2000/svg">
<path d="M28.5824 14.5717C27.1434 14.5397 24.186 15.5594 21.9743 17.9418C23.1652 15.219 22.4849 11.9876 21.9743 11.1356C21.9743 11.1356 17.2109 10.9664 14.5 15.9003C11.7892 10.9664 7.0256 11.1356 7.0256 11.1356C6.51521 11.9876 5.83467 15.219 7.0256 17.9418C4.81423 15.5594 1.85703 14.5397 0.417731 14.5717C0.395019 14.8977 0.379272 15.2267 0.379272 15.5594C0.379272 23.3585 6.70139 29 14.5 29C22.2982 29 28.6206 23.3585 28.6206 15.5594C28.6206 15.2267 28.6051 14.8977 28.5824 14.5717Z" fill="white"/>
<path d="M10.5381 10.4393C10.9721 10.4393 11.3241 10.0875 11.3241 9.65325C11.3241 9.21893 10.9721 8.86719 10.5381 8.86719C10.1045 8.86719 9.75256 9.21893 9.75256 9.65325C9.75256 10.0875 10.1046 10.4393 10.5381 10.4393Z" fill="white"/>
<path d="M8.74232 6.95937C9.17636 6.95937 9.52781 6.60814 9.52781 6.1728C9.52781 5.73956 9.1763 5.38782 8.74232 5.38782C8.30879 5.38782 7.95654 5.73956 7.95654 6.1728C7.95649 6.60814 8.30879 6.95937 8.74232 6.95937Z" fill="white"/>
<path d="M10.6046 3.34474C11.0389 3.34474 11.3907 2.99301 11.3907 2.56027C11.3907 2.12442 11.0389 1.77319 10.6046 1.77319C10.1711 1.77319 9.81934 2.12442 9.81934 2.56027C9.81939 2.99301 10.1711 3.34474 10.6046 3.34474Z" fill="white"/>
<path d="M18.4619 8.86719C18.0284 8.86719 17.6764 9.21893 17.6764 9.65325C17.6764 10.0875 18.0284 10.4393 18.4619 10.4393C18.8959 10.4393 19.2479 10.0875 19.2479 9.65325C19.2479 9.21898 18.8959 8.86719 18.4619 8.86719Z" fill="white"/>
<path d="M20.2581 6.95937C20.6911 6.95937 21.0439 6.60814 21.0439 6.1728C21.0439 5.73956 20.6911 5.38782 20.2581 5.38782C19.8238 5.38782 19.472 5.73956 19.472 6.1728C19.472 6.60814 19.8238 6.95937 20.2581 6.95937Z" fill="white"/>
<path d="M18.3951 3.34474C18.8294 3.34474 19.1812 2.99301 19.1812 2.56027C19.1812 2.12442 18.8294 1.77319 18.3951 1.77319C17.9616 1.77319 17.6099 2.12442 17.6099 2.56027C17.6099 2.99301 17.9616 3.34474 18.3951 3.34474Z" fill="white"/>
<path d="M14.5005 1.57212C14.934 1.57212 15.2861 1.22089 15.2861 0.785039C15.2861 0.352305 14.934 0 14.5005 0C14.0665 0 13.7145 0.352305 13.7145 0.785039C13.7145 1.22089 14.0665 1.57212 14.5005 1.57212Z" fill="white"/>
<path d="M11.8814 7.05683C12.6524 7.46532 13.3777 8.10485 13.3777 8.77746C13.3777 9.12608 13.3777 9.70064 13.3777 12.4456C13.772 12.9614 14.1495 13.5329 14.5 14.1714C14.8509 13.5328 15.2286 12.9613 15.6228 12.4456C15.6228 9.70064 15.6228 9.12608 15.6228 8.77746C15.6228 8.10485 16.3481 7.46532 17.1192 7.05683C18.3913 6.3832 18.0919 4.51196 16.9698 4.51196C15.8473 4.51196 14.5001 4.51196 14.5001 4.51196C14.5001 4.51196 13.1531 4.51196 12.0308 4.51196C10.9086 4.51196 10.6092 6.38326 11.8814 7.05683Z" fill="white"/>
</svg>
