<svg width="32" height="32" viewBox="0 0 32 32" fill="none" xmlns="http://www.w3.org/2000/svg">
<path d="M16 1C7.71572 1 1 7.71572 1 16C1 24.2842 7.71572 31 16 31C24.2842 31 31 24.2842 31 16C31 7.71572 24.2842 1 16 1Z" stroke="white" stroke-width="1.66446" stroke-linecap="round" stroke-linejoin="round"/>
<path d="M4.40649 25.5187C4.40649 25.5187 7.75002 21.2501 16 21.2501C24.25 21.2501 27.5936 25.5187 27.5936 25.5187" stroke="white" stroke-width="1.66446" stroke-linecap="round" stroke-linejoin="round"/>
<path d="M15.9999 16.0001C18.4852 16.0001 20.4999 13.9855 20.4999 11.5001C20.4999 9.01485 18.4852 7.00012 15.9999 7.00012C13.5145 7.00012 11.4999 9.01485 11.4999 11.5001C11.4999 13.9855 13.5145 16.0001 15.9999 16.0001Z" stroke="white" stroke-width="1.66446" stroke-linecap="round" stroke-linejoin="round"/>
</svg>
