<svg width="43" height="43" viewBox="0 0 43 43" fill="none" xmlns="http://www.w3.org/2000/svg">
<rect width="43" height="43" rx="21.5" fill="#565C67"/>
<path d="M20.9352 30.8704C16.0099 30.8704 12 26.8604 12 21.9352C12 17.0099 16.0099 13 20.9352 13C25.8604 13 29.8704 17.0099 29.8704 21.9352C29.8704 26.8604 25.8604 30.8704 20.9352 30.8704ZM20.9352 14.3076C16.7248 14.3076 13.3076 17.7335 13.3076 21.9352C13.3076 26.1369 16.7248 29.5628 20.9352 29.5628C25.1456 29.5628 28.5628 26.1369 28.5628 21.9352C28.5628 17.7335 25.1456 14.3076 20.9352 14.3076Z" fill="white"/>
<path d="M30.0887 31.742C29.923 31.742 29.7574 31.681 29.6267 31.5502L27.8832 29.8067C27.6304 29.5539 27.6304 29.1355 27.8832 28.8827C28.136 28.6299 28.5544 28.6299 28.8072 28.8827L30.5507 30.6262C30.8035 30.879 30.8035 31.2974 30.5507 31.5502C30.4199 31.681 30.2543 31.742 30.0887 31.742Z" fill="white"/>
</svg>
