<svg width="19" height="19" viewBox="0 0 19 19" fill="none" xmlns="http://www.w3.org/2000/svg">
<path d="M8.93518 17.8704C4.00994 17.8704 0 13.8604 0 8.93518C0 4.00994 4.00994 0 8.93518 0C13.8604 0 17.8704 4.00994 17.8704 8.93518C17.8704 13.8604 13.8604 17.8704 8.93518 17.8704ZM8.93518 1.30759C4.72475 1.30759 1.30759 4.73347 1.30759 8.93518C1.30759 13.1369 4.72475 16.5628 8.93518 16.5628C13.1456 16.5628 16.5628 13.1369 16.5628 8.93518C16.5628 4.73347 13.1456 1.30759 8.93518 1.30759Z" fill="white"/>
<path d="M18.0887 18.742C17.923 18.742 17.7574 18.681 17.6267 18.5502L15.8832 16.8067C15.6304 16.5539 15.6304 16.1355 15.8832 15.8827C16.136 15.6299 16.5544 15.6299 16.8072 15.8827L18.5507 17.6262C18.8035 17.879 18.8035 18.2974 18.5507 18.5502C18.4199 18.681 18.2543 18.742 18.0887 18.742Z" fill="white"/>
</svg>
