<svg width="26" height="26" viewBox="0 0 26 26" fill="none" xmlns="http://www.w3.org/2000/svg">
<path d="M20.7666 9.44559C20.7863 7.52112 19.2349 5.95012 17.3105 5.95012C16.7802 5.95012 16.2893 6.06795 15.8376 6.26432C16.1126 5.77339 16.2697 5.2039 16.2697 4.61478C16.2893 2.69031 14.7379 1.11931 12.8331 1.09967C10.9086 1.08003 9.33764 2.63139 9.33764 4.55587C9.33764 5.06644 9.43583 5.55738 9.63221 5.9894C9.35728 5.91085 9.06272 5.87157 8.74852 5.87157C6.82405 5.85194 5.25305 7.4033 5.25305 9.32777C5.25305 10.6238 5.94036 11.7432 6.98115 12.3519C6.25456 12.9803 5.78326 13.9033 5.78326 14.9441C5.76363 16.8686 7.29535 18.4396 9.21982 18.4592C10.5552 18.4592 11.7334 17.713 12.3225 16.6133C12.4207 16.4365 12.4993 16.2402 12.5582 16.0438C12.676 16.1027 12.7938 16.1223 12.9117 16.142C13.0295 16.4954 13.2062 16.8489 13.4419 17.1435C14.0703 17.9683 15.0718 18.4985 16.1715 18.5181C18.096 18.5377 19.667 16.9864 19.667 15.0619C19.667 14.0997 19.2938 13.2356 18.6654 12.6072C19.9026 12.0574 20.747 10.8595 20.7666 9.44559Z" fill="#148D13"/>
<path d="M13.5007 16.6919L13.9917 24.4487L12.0083 24.429L12.3814 16.1616C12.4796 15.9849 12.5581 15.7885 12.6171 15.5922C12.7349 15.6511 12.8527 15.6707 12.9705 15.6904C13.0884 16.0438 13.2651 16.3777 13.5007 16.6919Z" fill="#65320B"/>
</svg>
