<svg width="26" height="26" viewBox="0 0 26 26" fill="none" xmlns="http://www.w3.org/2000/svg">
<path d="M13.0003 26C12.7433 26 12.535 25.7917 12.535 25.5347V17.4552C12.535 17.1982 12.7434 16.9899 13.0003 16.9899C13.2573 16.9899 13.4656 17.1982 13.4656 17.4552V25.5347C13.4657 25.7917 13.2573 26 13.0003 26Z" fill="#B27214"/>
<path d="M15.6062 18.9442L13.0003 20.3388L10.6426 18.9442V5.54248H15.6062V18.9442Z" fill="#B27214"/>
<path d="M11.43 16.5479C12.4003 17.5183 13.0003 18.8584 13.0003 20.3389C10.0389 20.3389 7.63843 17.9384 7.63843 14.9775C9.1188 14.9775 10.4596 15.5775 11.43 16.5479Z" fill="#E09B2D"/>
<path d="M11.43 12.8179C12.4003 13.7883 13.0003 15.1285 13.0003 16.6089C10.0389 16.6089 7.63843 14.2084 7.63843 11.2476C9.1188 11.2476 10.4596 11.8476 11.43 12.8179Z" fill="#E09B2D"/>
<path d="M14.8418 4.57091C14.8207 5.68835 14.5037 6.80086 13.8913 7.78175C13.6425 8.17947 13.3453 8.55485 13.0003 8.90041C12.7255 8.62558 12.4817 8.33207 12.2688 8.02367C12.213 7.94425 12.1596 7.86356 12.1087 7.78165C11.474 6.76537 11.157 5.60761 11.157 4.44985C11.157 2.83912 11.7712 1.22911 13.0003 0C14.2598 1.25958 14.8734 2.92053 14.8418 4.57091Z" fill="#F7B239"/>
<path d="M11.43 9.08793C12.4003 10.0583 13.0003 11.3985 13.0003 12.8789C10.0389 12.8789 7.63843 10.4784 7.63843 7.51758C9.1188 7.51758 10.4596 8.11756 11.43 9.08793Z" fill="#E09B2D"/>
<path d="M12.1559 6.34224C12.6901 7.17611 13.0003 8.16761 13.0003 9.23168C10.0389 9.23168 7.63843 6.83121 7.63843 3.87036C9.11885 3.87036 10.4596 4.47034 11.43 5.44072C11.703 5.71377 11.9468 6.01592 12.1559 6.34224Z" fill="#E09B2D"/>
<path d="M18.3616 14.9775C18.3616 17.9383 15.9611 20.3389 13.0002 20.3389C13.0002 18.8584 13.6002 17.5183 14.5706 16.5479C15.5404 15.5775 16.8806 14.9775 18.3616 14.9775Z" fill="#F7B239"/>
<path d="M18.3616 11.2476C18.3616 14.2083 15.9611 16.6089 13.0002 16.6089C13.0002 15.1285 13.6002 13.7883 14.5706 12.8179C15.5404 11.8476 16.8806 11.2476 18.3616 11.2476Z" fill="#F7B239"/>
<path d="M18.3616 7.5177C18.3616 10.4784 15.9611 12.879 13.0002 12.879C13.0002 11.3986 13.6002 10.0584 14.5706 9.08806C15.5404 8.11768 16.8806 7.5177 18.3616 7.5177Z" fill="#F7B239"/>
<path d="M14.8418 4.57092C14.8207 5.68836 14.5036 6.80088 13.8913 7.78176C13.6424 8.17948 13.3453 8.55486 13.0003 8.90042C12.7255 8.62559 12.4816 8.33208 12.2688 8.02369C12.4077 7.41751 12.6504 6.85044 12.9761 6.34227C13.1852 6.0159 13.429 5.7137 13.702 5.44075C14.0401 5.10265 14.423 4.80914 14.8418 4.57092Z" fill="#E09B2D"/>
<path d="M18.3616 3.87048C18.3616 6.83123 15.9611 9.2318 13.0002 9.2318C13.0002 8.16774 13.3105 7.17623 13.8446 6.34236C14.0537 6.01599 14.2975 5.71389 14.5705 5.44084C15.5404 4.47041 16.8806 3.87048 18.3616 3.87048Z" fill="#F7B239"/>
</svg>
